<svg width="48" height="48" viewBox="0 0 48 48" fill="none" xmlns="http://www.w3.org/2000/svg">
  <path d="M24.5,4.2c-0.3,0.1-0.7,0.3-0.9,0.6c-0.2,0.3-0.3,0.6-0.3,1c0,0.4,0.1,0.7,0.3,1c0.2,0.3,0.5,0.5,0.9,0.6
  c0.3,0.1,0.7,0.1,1.1,0c0.3-0.1,0.6-0.3,0.9-0.6c0.2-0.3,0.3-0.6,0.3-1c0-0.4-0.1-0.7-0.3-1c-0.2-0.3-0.5-0.5-0.9-0.6
  C25.2,4.1,24.8,4.1,24.5,4.2z M32.5,7.2c-0.3,0.1-0.6,0.3-0.8,0.6c-0.2,0.3-0.3,0.6-0.3,0.9c0,0.3,0.1,0.7,0.3,0.9
  c0.2,0.3,0.5,0.5,0.8,0.6c0.3,0.1,0.7,0.1,1,0c0.3-0.1,0.6-0.3,0.8-0.6c0.2-0.3,0.3-0.6,0.3-0.9c0-0.3-0.1-0.7-0.3-0.9
  c-0.2-0.3-0.5-0.5-0.8-0.6C33.2,7.1,32.8,7.1,32.5,7.2z M16.5,9.2c-0.3,0.1-0.6,0.3-0.8,0.6c-0.2,0.3-0.3,0.6-0.3,0.9
  c0,0.3,0.1,0.7,0.3,0.9c0.2,0.3,0.5,0.5,0.8,0.6c0.3,0.1,0.7,0.1,1,0c0.3-0.1,0.6-0.3,0.8-0.6c0.2-0.3,0.3-0.6,0.3-0.9
  c0-0.3-0.1-0.7-0.3-0.9c-0.2-0.3-0.5-0.5-0.8-0.6C17.2,9.1,16.8,9.1,16.5,9.2z M24.5,12.2c-0.3,0.1-0.6,0.3-0.8,0.6
  c-0.2,0.3-0.3,0.6-0.3,0.9c0,0.3,0.1,0.7,0.3,0.9c0.2,0.3,0.5,0.5,0.8,0.6c0.3,0.1,0.7,0.1,1,0c0.3-0.1,0.6-0.3,0.8-0.6
  c0.2-0.3,0.3-0.6,0.3-0.9c0-0.3-0.1-0.7-0.3-0.9c-0.2-0.3-0.5-0.5-0.8-0.6C25.2,12.1,24.8,12.1,24.5,12.2z M36.5,15.2
  c-0.3,0.1-0.6,0.3-0.8,0.6c-0.2,0.3-0.3,0.6-0.3,0.9c0,0.3,0.1,0.7,0.3,0.9c0.2,0.3,0.5,0.5,0.8,0.6c0.3,0.1,0.7,0.1,1,0
  c0.3-0.1,0.6-0.3,0.8-0.6c0.2-0.3,0.3-0.6,0.3-0.9c0-0.3-0.1-0.7-0.3-0.9c-0.2-0.3-0.5-0.5-0.8-0.6C37.2,15.1,36.8,15.1,36.5,15.2z
  M12.5,17.2c-0.3,0.1-0.6,0.3-0.8,0.6c-0.2,0.3-0.3,0.6-0.3,0.9c0,0.3,0.1,0.7,0.3,0.9c0.2,0.3,0.5,0.5,0.8,0.6c0.3,0.1,0.7,0.1,1,0
  c0.3-0.1,0.6-0.3,0.8-0.6c0.2-0.3,0.3-0.6,0.3-0.9c0-0.3-0.1-0.7-0.3-0.9c-0.2-0.3-0.5-0.5-0.8-0.6C13.2,17.1,12.8,17.1,12.5,17.2z
  M20.5,20.2c-0.3,0.1-0.6,0.3-0.8,0.6c-0.2,0.3-0.3,0.6-0.3,0.9c0,0.3,0.1,0.7,0.3,0.9c0.2,0.3,0.5,0.5,0.8,0.6c0.3,0.1,0.7,0.1,1,0
  c0.3-0.1,0.6-0.3,0.8-0.6c0.2-0.3,0.3-0.6,0.3-0.9c0-0.3-0.1-0.7-0.3-0.9c-0.2-0.3-0.5-0.5-0.8-0.6C21.2,20.1,20.8,20.1,20.5,20.2z
  M28.5,23.2c-0.3,0.1-0.6,0.3-0.8,0.6c-0.2,0.3-0.3,0.6-0.3,0.9c0,0.3,0.1,0.7,0.3,0.9c0.2,0.3,0.5,0.5,0.8,0.6c0.3,0.1,0.7,0.1,1,0
  c0.3-0.1,0.6-0.3,0.8-0.6c0.2-0.3,0.3-0.6,0.3-0.9c0-0.3-0.1-0.7-0.3-0.9c-0.2-0.3-0.5-0.5-0.8-0.6C29.2,23.1,28.8,23.1,28.5,23.2z
  M16.5,25.2c-0.3,0.1-0.6,0.3-0.8,0.6c-0.2,0.3-0.3,0.6-0.3,0.9c0,0.3,0.1,0.7,0.3,0.9c0.2,0.3,0.5,0.5,0.8,0.6c0.3,0.1,0.7,0.1,1,0
  c0.3-0.1,0.6-0.3,0.8-0.6c0.2-0.3,0.3-0.6,0.3-0.9c0-0.3-0.1-0.7-0.3-0.9c-0.2-0.3-0.5-0.5-0.8-0.6C17.2,25.1,16.8,25.1,16.5,25.2z
  M24.5,28.2c-0.3,0.1-0.6,0.3-0.8,0.6c-0.2,0.3-0.3,0.6-0.3,0.9c0,0.3,0.1,0.7,0.3,0.9c0.2,0.3,0.5,0.5,0.8,0.6c0.3,0.1,0.7,0.1,1,0
  c0.3-0.1,0.6-0.3,0.8-0.6c0.2-0.3,0.3-0.6,0.3-0.9c0-0.3-0.1-0.7-0.3-0.9c-0.2-0.3-0.5-0.5-0.8-0.6C25.2,28.1,24.8,28.1,24.5,28.2z
  M32.5,31.2c-0.3,0.1-0.6,0.3-0.8,0.6c-0.2,0.3-0.3,0.6-0.3,0.9c0,0.3,0.1,0.7,0.3,0.9c0.2,0.3,0.5,0.5,0.8,0.6c0.3,0.1,0.7,0.1,1,0
  c0.3-0.1,0.6-0.3,0.8-0.6c0.2-0.3,0.3-0.6,0.3-0.9c0-0.3-0.1-0.7-0.3-0.9c-0.2-0.3-0.5-0.5-0.8-0.6C33.2,31.1,32.8,31.1,32.5,31.2z
  M20.5,33.2c-0.3,0.1-0.6,0.3-0.8,0.6c-0.2,0.3-0.3,0.6-0.3,0.9c0,0.3,0.1,0.7,0.3,0.9c0.2,0.3,0.5,0.5,0.8,0.6c0.3,0.1,0.7,0.1,1,0
  c0.3-0.1,0.6-0.3,0.8-0.6c0.2-0.3,0.3-0.6,0.3-0.9c0-0.3-0.1-0.7-0.3-0.9c-0.2-0.3-0.5-0.5-0.8-0.6C21.2,33.1,20.8,33.1,20.5,33.2z
  M28.5,36.2c-0.3,0.1-0.6,0.3-0.8,0.6c-0.2,0.3-0.3,0.6-0.3,0.9c0,0.3,0.1,0.7,0.3,0.9c0.2,0.3,0.5,0.5,0.8,0.6c0.3,0.1,0.7,0.1,1,0
  c0.3-0.1,0.6-0.3,0.8-0.6c0.2-0.3,0.3-0.6,0.3-0.9c0-0.3-0.1-0.7-0.3-0.9c-0.2-0.3-0.5-0.5-0.8-0.6C29.2,36.1,28.8,36.1,28.5,36.2z
  M24.5,39.2c-0.3,0.1-0.6,0.3-0.8,0.6c-0.2,0.3-0.3,0.6-0.3,0.9c0,0.3,0.1,0.7,0.3,0.9c0.2,0.3,0.5,0.5,0.8,0.6c0.3,0.1,0.7,0.1,1,0
  c0.3-0.1,0.6-0.3,0.8-0.6c0.2-0.3,0.3-0.6,0.3-0.9c0-0.3-0.1-0.7-0.3-0.9c-0.2-0.3-0.5-0.5-0.8-0.6C25.2,39.1,24.8,39.1,24.5,39.2z" 
  fill="#D69C5C"/>
</svg>